<?xml version="1.0" encoding="utf-8"?>
<!-- Generator: Adobe Illustrator 24.1.2, SVG Export Plug-In . SVG Version: 6.00 Build 0)  -->
<svg version="1.1" id="Layer_1" xmlns="http://www.w3.org/2000/svg" xmlns:xlink="http://www.w3.org/1999/xlink" x="0px" y="0px"
	 viewBox="0 0 136 35" style="enable-background:new 0 0 136 35;" xml:space="preserve">
<style type="text/css">
	.st0{fill:#FF8300;}
</style>
<path class="st0" d="M77.1062775,20.9725819h-0.0017242c-0.0356903,7.2800426-5.8383713,13.1913967-12.962471,13.1913967
	c-7.1241074,0-12.9232292-5.9113541-12.9615517-13.1913967l0,0V9.7245378c0,0,6.1609116,1.5335674,6.2268829,8.1150312v3.0625725
	c0,3.9732952,3.02425,7.206131,6.7346687,7.206131c3.7122421,0,6.7284546-3.2323799,6.7321091-7.2025738v-6.4762573v-0.0347643
	v0.1202621c0.2584076-5.4840593,4.906189-7.2439995,6.100235-7.8133731h0.1318512v7.6931109V20.9725819z M43.7606163,7.8448753
	c1.7144089,0,3.3441582,0.3193607,4.850071,0.880331v6.9459076c-1.29916-1.1017923-2.9903984-1.7714453-4.850071-1.7714453
	c-4.085537,0-7.3959312,3.2220697-7.3959312,7.1936312v13.0706787h-6.2294369V21.3298931v-0.2365932V10.2943678
	c0,0,2.5502262,0.121623,4.2040577,1.2465992C36.788887,9.2567205,40.101017,7.8448753,43.7606163,7.8448753 M14.0318422,28.2798157
	c-4.1381845,0-7.5010462-3.2662334-7.5010462-7.2912655c0-4.02631,3.3628616-7.2938194,7.5010462-7.2938194
	c4.1399031,0,7.5027647,3.2675095,7.5027647,7.2938194C21.5346069,25.0135822,18.1717453,28.2798157,14.0318422,28.2798157
	 M14.0318422,7.8448753C6.5601773,7.8448753,0.5,13.7378902,0.5,21.0041466c0,7.2698288,6.0601773,13.1580086,13.5318422,13.1580086
	c3.091033,0,5.9326982-1.0135574,8.2129297-2.7137394c1.4017181,2.2794094,5.3241901,2.7137394,5.3241901,2.7137394v-2.1220131
	V21.5824699v-0.5783234C27.5689621,13.7378902,21.5105171,7.8448753,14.0318422,7.8448753 M121.9681549,28.2798157
	c-4.1434708,0-7.5046005-3.2662334-7.5046005-7.2912655c0-4.02631,3.3611298-7.2938194,7.5046005-7.2938194
	c4.1390915,0,7.4957428,3.2675095,7.4957428,7.2938194C129.4638977,25.0135822,126.1072464,28.2798157,121.9681549,28.2798157
	 M121.9681549,7.8448753c-7.4805069,0-13.5388641,5.8930149-13.5388641,13.1592712
	c0,7.2698288,6.0583572,13.1580086,13.5388641,13.1580086c3.0884857,0,5.9274216-1.0135574,8.2077332-2.7137394
	C131.5775146,33.7278252,135.5,34.1621552,135.5,34.1621552v-2.1220131V21.5824699v-0.5783234
	C135.5,13.7378902,129.4389038,7.8448753,121.9681549,7.8448753 M93.3523026,28.2798157
	c-4.1434708,0-7.5010376-3.2662334-7.5010376-7.2912655c0-4.02631,3.3575668-7.2938194,7.5010376-7.2938194
	c4.1399155,0,7.4993057,3.2675095,7.4993057,7.2938194C100.8516083,25.0135822,97.492218,28.2798157,93.3523026,28.2798157
	 M93.3523026,7.8448753c-2.7542496,0-5.3098602,0.8055096-7.4529495,2.1804085V7.966042
	c-0.2556686-5.4855037-4.7591934-7.24755-5.9505005-7.8147335h-0.135498v20.8528385v0.827879v10.2081165v2.2040405
	c0,0,4.0490265-0.4246559,5.5665359-2.629982c2.236618,1.59589,4.9855728,2.5479546,7.9724121,2.5479546
	c7.4743118,0,13.5353928-5.8881798,13.5353928-13.1580086C106.8876953,13.7378902,100.8266144,7.8448753,93.3523026,7.8448753"/>
</svg>
