<?xml version="1.0" encoding="utf-8"?>
<!-- Generator: Adobe Illustrator 19.2.1, SVG Export Plug-In . SVG Version: 6.00 Build 0)  -->
<svg version="1.1" id="layer" xmlns="http://www.w3.org/2000/svg" xmlns:xlink="http://www.w3.org/1999/xlink" x="0px" y="0px"
	 viewBox="0 0 652 652" style="enable-background:new 0 0 652 652;" xml:space="preserve">
<style type="text/css">
	.st0{fill:#440099;}
</style>
<g>
	<path class="st0" d="M20.5,261.5v96.8L44.7,334v-48.3h89v-24.2H20.5z"/>
	<path class="st0" d="M68.9,309.8h48.8V334H68.9V309.8z"/>
	<path class="st0" d="M20.5,358.2l24.2,24.3h89v-24.3H20.5z"/>
	<path class="st0" d="M182.2,285.7h52.5v7.5h-44.3v24.8H230v7.5h-39.6v25.4h44.8v7.5h-53L182.2,285.7z"/>
	<path class="st0" d="M266.6,331l-20.3-26.4h9.2l15.9,20.8l15.9-20.8h8.9l-20.4,26.1l21.2,27.5h-9.3l-16.6-21.9l-16.6,21.9h-8.9
		L266.6,331z"/>
	<path class="st0" d="M312.8,344v-32.4h-7.5v-7h7.5v-16.1h8v16.2h17.1v7h-17.1V343c0,6.5,3.7,8.9,9,8.9c2.7,0,5-0.5,7.8-1.9v6.9
		c-2.8,1.4-5.9,2.3-9.7,2.3C319.3,359.1,312.8,354.9,312.8,344"/>
	<path class="st0" d="M351.9,304.6h8v14c4-8.9,11.7-15.4,21.9-14.9v8.6h-0.6c-11.7,0-21.3,8.4-21.3,24.6v21.4h-8V304.6z"/>
	<path class="st0" d="M430.9,328.2c-0.9-9.8-6.5-18.1-17.1-18.1c-9.3,0-16.3,7.6-17.4,18.1H430.9L430.9,328.2z M415.3,352.5
		c7.4,0,12.6-3,16.9-7.5l5,4.5c-5.4,6-12,10.1-22.1,10.1c-14.8,0-26.7-11.3-26.7-28c0-15.5,10.9-28,25.7-28c15.9,0,25,12.6,25,28.4
		c0,0.8,0,1.5-0.1,2.8h-42.5C397.6,346,405.8,352.5,415.3,352.5L415.3,352.5z"/>
	<path class="st0" d="M453.1,304.6h8v9c3.5-5.3,8.3-10.2,17.3-10.2c8.7,0,14.3,4.7,17.2,10.7c3.8-5.9,9.5-10.7,18.8-10.7
		c12.3,0,19.9,8.3,19.9,21.5v33.2h-8v-31.3c0-10.3-5.2-16.2-13.9-16.2c-8.1,0-14.9,6-14.9,16.6v30.9h-7.9v-31.6
		c0-10.1-5.3-15.9-13.8-15.9c-8.5,0-14.9,7-14.9,16.9v30.5h-8L453.1,304.6L453.1,304.6z"/>
	<path class="st0" d="M590.6,328.2c-0.9-9.8-6.5-18.1-17.1-18.1c-9.3,0-16.3,7.6-17.4,18.1C556,328.2,590.6,328.2,590.6,328.2z
		 M574.9,352.5c7.4,0,12.6-3,16.9-7.5l5,4.5c-5.4,6-12,10.1-22.1,10.1c-14.7,0-26.7-11.3-26.7-28c0-15.5,10.9-28,25.7-28
		c15.9,0,25,12.6,25,28.4c0,0.8,0,1.5-0.1,2.8h-42.5C557.1,346,565.5,352.5,574.9,352.5L574.9,352.5z"/>
	<path class="st0" d="M604.4,298.9h-3.1v-1.6h7.8v1.6h-3.1v8.1h-1.7V298.9z"/>
	<path class="st0" d="M611,297.3h1.8l3,4.6l3-4.6h1.8v9.7h-1.7v-7l-3.1,4.6h-0.1l-3.1-4.5v6.9h-1.7L611,297.3L611,297.3z"/>
</g>
</svg>
